<svg width="50" height="50" viewBox="0 0 50 50" fill="none" xmlns="http://www.w3.org/2000/svg">
<path d="M25 8.1522C25.5978 8.1522 26.0869 7.66307 26.0869 7.06525V6.52177C26.0869 5.92394 25.5978 5.43481 25 5.43481C24.4022 5.43481 23.913 5.92394 23.913 6.52177V7.06525C23.913 7.66307 24.4022 8.1522 25 8.1522Z" fill="black"/>
<path d="M25 41.8478C24.4022 41.8478 23.913 42.3369 23.913 42.9347V43.4782C23.913 44.076 24.4022 44.5652 25 44.5652C25.5978 44.5652 26.0869 44.076 26.0869 43.4782V42.9347C26.0869 42.3369 25.5978 41.8478 25 41.8478Z" fill="black"/>
<path d="M7.06522 23.9131H6.52174C5.92391 23.9131 5.43478 24.4022 5.43478 25C5.43478 25.5979 5.92391 26.087 6.52174 26.087H7.06522C7.66304 26.087 8.15217 25.5979 8.15217 25C8.15217 24.4022 7.66304 23.9131 7.06522 23.9131Z" fill="black"/>
<path d="M43.4783 23.9131H42.9348C42.337 23.9131 41.8478 24.4022 41.8478 25C41.8478 25.5979 42.337 26.087 42.9348 26.087H43.4783C44.0761 26.087 44.5652 25.5979 44.5652 25C44.5652 24.4022 44.0761 23.9131 43.4783 23.9131Z" fill="black"/>
<path d="M12.7174 11.1956C12.2826 10.7608 11.6304 10.7608 11.1957 11.1956C10.7609 11.6304 10.7609 12.2826 11.1957 12.7173L11.5761 13.0978C11.7935 13.3152 12.0652 13.4239 12.337 13.4239C12.6087 13.4239 12.8804 13.3152 13.0978 13.0978C13.5326 12.663 13.5326 12.0108 13.0978 11.576L12.7174 11.1956Z" fill="black"/>
<path d="M11.5761 36.9023L11.1957 37.2827C10.7609 37.7175 10.7609 38.3697 11.1957 38.8044C11.413 39.0218 11.6848 39.1305 11.9565 39.1305C12.2283 39.1305 12.5 39.0218 12.7174 38.8044L13.0978 38.424C13.5326 37.9892 13.5326 37.337 13.0978 36.9023C12.663 36.4675 12.0109 36.4675 11.5761 36.9023Z" fill="black"/>
<path d="M37.2826 11.1956L36.9022 11.576C36.4674 12.0108 36.4674 12.663 36.9022 13.0978C37.1196 13.3152 37.3913 13.4239 37.663 13.4239C37.9348 13.4239 38.2065 13.3152 38.4239 13.0978L38.8043 12.7173C39.2391 12.2826 39.2391 11.6304 38.8043 11.1956C38.3696 10.7608 37.7174 10.7608 37.2826 11.1956Z" fill="black"/>
<path d="M26.087 24.5652V14.6739C26.087 14.076 25.5978 13.5869 25 13.5869C24.4022 13.5869 23.913 14.076 23.913 14.6739V25C23.913 25.2717 24.0217 25.5434 24.2391 25.7608L36.1413 37.663C36.3587 37.8804 36.6304 37.9891 36.9022 37.9891C37.1739 37.9891 37.4456 37.8804 37.663 37.663C38.0978 37.2282 38.0978 36.576 37.663 36.1413L26.087 24.5652Z" fill="black"/>
<path d="M25 0C11.1957 0 0 11.1957 0 25C0 38.8043 11.1957 50 25 50C38.8043 50 50 38.8043 50 25C50 11.1957 38.8043 0 25 0ZM25 47.8261C12.3913 47.8261 2.17391 37.6087 2.17391 25C2.17391 12.3913 12.3913 2.17391 25 2.17391C37.6087 2.17391 47.8261 12.3913 47.8261 25C47.8261 37.6087 37.6087 47.8261 25 47.8261Z" fill="black"/>
</svg>
