<svg width="80" height="80" viewBox="0 0 80 80" fill="none" xmlns="http://www.w3.org/2000/svg">
<path d="M60.3131 40.0253C60.3131 45.9839 57.7401 51.2653 53.8129 54.9217H26.3225C22.2599 51.2653 19.8223 45.9839 19.8223 40.0253C19.8223 28.7853 28.8955 19.7122 40.1355 19.7122C51.3755 19.7122 60.3131 28.7855 60.3131 40.0253Z" fill="#FFE079"/>
<path d="M65.73 79.9746H38.6458C38.2395 79.9746 37.9686 79.7037 37.9686 79.2974C37.9686 78.8912 38.2395 78.6203 38.6458 78.6203H65.73C66.1363 78.6203 66.4072 78.8912 66.4072 79.2974C66.407 79.7037 66.1363 79.9746 65.73 79.9746ZM33.229 79.9746H8.85321C8.44694 79.9746 8.17605 79.7037 8.17605 79.2974C8.17605 78.8912 8.44694 78.6203 8.85321 78.6203H33.229C33.6352 78.6203 33.9061 78.8912 33.9061 79.2974C33.906 79.7037 33.6352 79.9746 33.229 79.9746ZM60.3131 71.8493H30.5205C30.1142 71.8493 29.8433 71.5784 29.8433 71.1722C29.8433 70.7659 30.1142 70.495 30.5205 70.495H60.3131C60.7193 70.495 60.9902 70.7659 60.9902 71.1722C60.9902 71.5784 60.7193 71.8493 60.3131 71.8493ZM25.1037 71.8493H14.27C13.8637 71.8493 13.5928 71.5784 13.5928 71.1722C13.5928 70.7659 13.8637 70.495 14.27 70.495H25.1037C25.51 70.495 25.7809 70.7659 25.7809 71.1722C25.7807 71.5784 25.51 71.8493 25.1037 71.8493ZM73.8553 63.7241H44.0626C43.6563 63.7241 43.3854 63.4532 43.3854 63.0469C43.3854 62.6407 43.6563 62.3698 44.0626 62.3698H73.8551C74.2614 62.3698 74.5323 62.6407 74.5323 63.0469C74.5323 63.4532 74.2615 63.7241 73.8553 63.7241ZM38.6458 63.7241H8.85321C8.44694 63.7241 8.17605 63.4532 8.17605 63.0469C8.17605 62.6407 8.44694 62.3698 8.85321 62.3698H38.6458C39.052 62.3698 39.3229 62.6407 39.3229 63.0469C39.3229 63.4532 39.052 63.7241 38.6458 63.7241ZM79.272 55.5988H22.3953C21.989 55.5988 21.7181 55.3279 21.7181 54.9217C21.7181 54.5154 21.989 54.2445 22.3953 54.2445H79.272C79.6783 54.2445 79.9492 54.5154 79.9492 54.9217C79.9492 55.3279 79.6783 55.5988 79.272 55.5988ZM16.9785 55.5988H0.727949C0.321686 55.5988 0.0507911 55.3279 0.0507911 54.9217C0.0507911 54.5154 0.321686 54.2445 0.727949 54.2445H16.9785C17.3847 54.2445 17.6556 54.5154 17.6556 54.9217C17.6556 55.3279 17.3847 55.5988 16.9785 55.5988ZM22.1244 50.3174C21.8535 50.3174 21.5827 50.182 21.5827 49.9111C19.9577 46.9319 19.1451 43.4109 19.1451 40.0254C19.1451 28.5147 28.6246 19.0351 40.1354 19.0351C51.6463 19.0351 61.1258 28.5146 61.1258 40.0254C61.1258 43.4109 60.3132 46.7966 58.6882 49.7758C58.5528 50.0467 58.1465 50.182 57.7403 50.0467C57.4694 49.9113 57.334 49.505 57.4694 49.0988C58.9591 46.2549 59.7716 43.1402 59.7716 39.8901C59.7716 29.0563 50.9692 20.2541 40.1356 20.2541C29.302 20.2541 20.4996 29.0565 20.4996 39.8901C20.4996 43.1402 21.3121 46.2549 22.8018 49.0988C22.9372 49.3697 22.8018 49.7759 22.5309 50.0467C22.2599 50.1819 22.1244 50.3174 22.1244 50.3174ZM76.5636 40.7025H65.7299C65.3236 40.7025 65.0527 40.4316 65.0527 40.0253C65.0527 39.619 65.3236 39.3481 65.7299 39.3481H76.5636C76.9698 39.3481 77.2407 39.619 77.2407 40.0253C77.2407 40.4316 76.9698 40.7025 76.5636 40.7025ZM14.27 40.7025H3.43626C3.03 40.7025 2.7591 40.4316 2.7591 40.0253C2.7591 39.619 3.03 39.3481 3.43626 39.3481H14.27C14.6763 39.3481 14.9472 39.619 14.9472 40.0253C14.9472 40.4316 14.6763 40.7025 14.27 40.7025ZM53.2712 33.9313C53.0003 33.9313 52.7296 33.796 52.7296 33.5251C51.6462 31.3584 49.8858 29.4625 47.8544 27.9728C47.5835 27.7019 47.4482 27.2956 47.7191 27.0249C47.99 26.754 48.3962 26.6186 48.667 26.8895C50.9692 28.3792 52.865 30.4105 54.0838 32.8481C54.2191 33.119 54.0838 33.5252 53.8129 33.796C53.5421 33.9313 53.4066 33.9313 53.2712 33.9313ZM63.8341 30.8168C63.5632 30.8168 63.2924 30.6814 63.1569 30.4105C63.0215 30.0042 63.1569 29.7333 63.5632 29.4626L68.5737 27.4313C68.9799 27.2959 69.2509 27.4313 69.5216 27.8376C69.657 28.2438 69.5216 28.5147 69.1153 28.7855L64.1048 30.8168C63.9694 30.8168 63.8341 30.8168 63.8341 30.8168ZM16.1659 30.8168C16.0306 30.8168 16.0306 30.8168 15.895 30.8168L10.8845 28.7855C10.4783 28.6501 10.3429 28.2438 10.4783 27.8376C10.6136 27.4313 11.0199 27.2959 11.4262 27.4313L16.4367 29.4626C16.8429 29.598 16.9783 30.0042 16.8429 30.4105C16.7076 30.6812 16.4367 30.8168 16.1659 30.8168ZM73.7197 26.7541C73.4488 26.7541 73.1781 26.6188 73.0426 26.3479C72.9072 25.9416 73.0426 25.6707 73.4488 25.4L79.0012 23.0978C79.4074 22.9624 79.6783 23.0978 79.9491 23.504C80.0844 23.9103 79.9491 24.1812 79.5428 24.4519L73.9905 26.7541C73.9906 26.7541 73.8553 26.7541 73.7197 26.7541ZM6.2801 26.7541C6.14473 26.7541 6.14473 26.7541 6.00921 26.7541L0.457054 24.4519C0.0507911 24.3166 -0.084577 23.9103 0.0507911 23.504C0.186159 23.0978 0.592422 22.9624 0.998685 23.0978L6.551 25.4C6.95726 25.5354 7.09263 25.9416 6.95726 26.3479C6.68637 26.6186 6.551 26.7541 6.2801 26.7541ZM58.688 22.6915C58.5526 22.6915 58.2817 22.6915 58.1464 22.5561C57.8755 22.2852 57.8755 21.879 58.1464 21.6082L64.9175 14.9727C65.1884 14.7018 65.5946 14.7018 65.8654 14.9727C66.1363 15.2436 66.1363 15.6498 65.8654 15.9206L59.0943 22.5561C58.9589 22.6915 58.8235 22.6915 58.688 22.6915ZM22.2599 22.6915C22.1245 22.6915 21.8536 22.6915 21.7183 22.5561L13.9993 14.8371C13.7284 14.5663 13.7284 14.16 13.9993 13.8893C14.2702 13.6185 14.6764 13.6184 14.9472 13.8893L22.6661 21.6082C22.937 21.8791 22.937 22.2854 22.6661 22.5561C22.6661 22.6915 22.3953 22.6915 22.2599 22.6915ZM49.8858 16.8683C49.7504 16.8683 49.7504 16.8683 49.6149 16.8683C49.2086 16.7329 49.0732 16.3267 49.2086 15.9204L51.2399 10.9099C51.3753 10.5036 51.7815 10.3683 52.1878 10.5036C52.5941 10.639 52.7294 11.0453 52.5941 11.4515L50.5628 16.462C50.4274 16.7329 50.1565 16.8683 49.8858 16.8683ZM30.1142 16.8683C29.8433 16.8683 29.5726 16.7329 29.4371 16.462L27.4058 11.4515C27.2704 11.0453 27.4058 10.7744 27.812 10.5036C28.2183 10.3683 28.4892 10.5036 28.7599 10.9099L30.7912 15.9204C30.9266 16.3267 30.7912 16.5976 30.385 16.8683C30.3851 16.8683 30.2496 16.8683 30.1142 16.8683ZM39.9999 14.9725C39.5937 14.9725 39.3228 14.7016 39.3228 14.2954V4.81594C39.3228 4.40968 39.5937 4.13878 39.9999 4.13878C40.4062 4.13878 40.6771 4.40968 40.6771 4.81594V14.2954C40.6771 14.7016 40.4062 14.9725 39.9999 14.9725ZM26.0516 6.98262C25.7807 6.98262 25.51 6.84725 25.3745 6.57636L23.0724 1.02405C22.937 0.617782 23.0724 0.346887 23.4787 0.0761512C23.8849 -0.0592169 24.1558 0.0761512 24.4266 0.482414L26.7288 6.03473C26.8641 6.44099 26.7288 6.71189 26.3225 6.98262C26.187 6.84725 26.0516 6.98262 26.0516 6.98262ZM53.9484 6.98262C53.813 6.98262 53.813 6.98262 53.6775 6.98262C53.2712 6.84725 53.1359 6.44099 53.2712 6.03473L55.5734 0.482414C55.7088 0.0761512 56.1151 -0.0592169 56.5213 0.0761512C56.9276 0.211519 57.063 0.617782 56.9276 1.02405L54.6254 6.57636C54.49 6.71173 54.2191 6.98262 53.9484 6.98262Z" fill="#51565F"/>
</svg>
