<svg width="18" height="51" viewBox="0 0 18 51" fill="none" xmlns="http://www.w3.org/2000/svg">
<path d="M13.1543 5.47566C13.1543 3.13962 11.2606 1.24585 8.9245 1.24585C6.58846 1.24585 4.69469 3.13952 4.69469 5.47566V18.5621H13.1542V5.47566H13.1543Z" fill="white"/>
<path d="M13.1543 35.6677V18.562H4.69479V35.6676C2.61724 37.0418 1.24602 39.3979 1.24602 42.0755C1.24602 46.3163 4.68374 49.7541 8.92461 49.7541C13.1655 49.7541 16.6032 46.3164 16.6032 42.0755C16.6031 39.3981 15.2319 37.0419 13.1543 35.6677Z" fill="#0069D9"/>
<path d="M14.4002 35.0292C14.4002 34.0036 14.4002 6.5015 14.4002 5.47583C14.4002 2.45647 11.9438 0 8.9245 0C5.90524 0 3.44878 2.45647 3.44878 5.47573C3.44878 6.5022 3.44878 34.0039 3.44878 35.0291C1.27749 36.7158 0 39.3022 0 42.0754C0 46.9964 4.0036 51 8.9245 51C13.8454 51 17.849 46.9964 17.849 42.0755C17.849 39.3023 16.5715 36.716 14.4002 35.0292ZM5.9406 5.47573C5.9406 3.83048 7.27925 2.49183 8.9245 2.49183C10.5697 2.49183 11.9084 3.83048 11.9084 5.47573V8.65805H9.33898C8.65068 8.65805 8.09306 9.21576 8.09306 9.90396C8.09306 10.5922 8.65078 11.1499 9.33898 11.1499H11.9084V12.4423H9.33898C8.65068 12.4423 8.09306 13 8.09306 13.6882C8.09306 14.3764 8.65078 14.9341 9.33898 14.9341H11.9084V17.316H5.9406V5.47573ZM8.9245 48.5082C5.37741 48.5082 2.49183 45.6226 2.49183 42.0755C2.49183 39.9109 3.57229 37.9038 5.38189 36.7067C5.73073 36.476 5.94041 36.086 5.94041 35.6676V19.8079H11.9082V35.6676C11.9082 36.0859 12.118 36.476 12.4667 36.7067C14.2764 37.9039 15.3568 39.911 15.3568 42.0755C15.3572 45.6226 12.4716 48.5082 8.9245 48.5082Z" fill="#58595B"/>
<path d="M12.6101 40.8296C11.9218 40.8296 11.3642 41.3873 11.3642 42.0755C11.3642 43.4207 10.2698 44.5152 8.9245 44.5152C8.2362 44.5152 7.67859 45.0729 7.67859 45.7611C7.67859 46.4493 8.2363 47.0071 8.9245 47.0071C11.6437 47.0071 13.8561 44.7949 13.8561 42.0755C13.8561 41.3874 13.2982 40.8296 12.6101 40.8296Z" fill="#58595B"/>
</svg>
